<svg width="1080" height="1400" viewBox="0 0 1080 1400" fill="none" xmlns="http://www.w3.org/2000/svg">
  <defs>
    <linearGradient id="bg" x1="120" y1="0" x2="920" y2="1400" gradientUnits="userSpaceOnUse">
      <stop stop-color="#0F1412"/>
      <stop offset="1" stop-color="#1D2E26"/>
    </linearGradient>
    <linearGradient id="metal" x1="255" y1="100" x2="820" y2="1280" gradientUnits="userSpaceOnUse">
      <stop stop-color="#F5F7F6"/>
      <stop offset="0.38" stop-color="#CED6D0"/>
      <stop offset="1" stop-color="#AAB5AE"/>
    </linearGradient>
    <linearGradient id="panel" x1="320" y1="190" x2="760" y2="540" gradientUnits="userSpaceOnUse">
      <stop stop-color="#1E2422"/>
      <stop offset="1" stop-color="#121614"/>
    </linearGradient>
    <linearGradient id="tray" x1="340" y1="816" x2="739" y2="1130" gradientUnits="userSpaceOnUse">
      <stop stop-color="#232927"/>
      <stop offset="1" stop-color="#151917"/>
    </linearGradient>
    <radialGradient id="glow" cx="0" cy="0" r="1" gradientUnits="userSpaceOnUse" gradientTransform="translate(540 1100) rotate(90) scale(220 420)">
      <stop stop-color="#2ECC71" stop-opacity="0.38"/>
      <stop offset="1" stop-color="#2ECC71" stop-opacity="0"/>
    </radialGradient>
  </defs>

  <rect width="1080" height="1400" rx="48" fill="url(#bg)"/>
  <ellipse cx="540" cy="1096" rx="320" ry="180" fill="url(#glow)"/>

  <g filter="url(#none)">
    <rect x="250" y="100" width="580" height="1210" rx="46" fill="url(#metal)"/>
    <rect x="254" y="104" width="572" height="1202" rx="42" stroke="#F8FBF9" stroke-opacity="0.55" stroke-width="2"/>

    <rect x="308" y="170" width="464" height="390" rx="28" fill="url(#panel)"/>
    <rect x="330" y="194" width="420" height="170" rx="20" fill="#0C100E"/>
    <rect x="340" y="204" width="400" height="150" rx="16" fill="#111716"/>

    <rect x="346" y="378" width="388" height="164" rx="18" fill="#161D19"/>
    <rect x="368" y="404" width="210" height="96" rx="10" fill="#222B26"/>
    <rect x="592" y="404" width="122" height="96" rx="10" fill="#0F1412"/>
    <rect x="608" y="420" width="90" height="16" rx="8" fill="#2ECC71" fill-opacity="0.85"/>
    <rect x="608" y="447" width="64" height="10" rx="5" fill="#D7E3DB" fill-opacity="0.4"/>
    <rect x="608" y="465" width="52" height="10" rx="5" fill="#D7E3DB" fill-opacity="0.28"/>

    <rect x="324" y="602" width="432" height="180" rx="26" fill="#E5EBE7"/>
    <rect x="346" y="634" width="390" height="114" rx="20" fill="#D5DFD8"/>
    <path d="M366 710H714" stroke="#B2BFB7" stroke-width="10" stroke-linecap="round"/>

    <rect x="316" y="822" width="448" height="420" rx="24" fill="url(#tray)"/>
    <rect x="336" y="848" width="408" height="230" rx="18" fill="#0D120F"/>
    <rect x="350" y="864" width="380" height="198" rx="12" fill="#151C19"/>

    <rect x="356" y="1096" width="366" height="126" rx="12" fill="#1D2521"/>
    <rect x="372" y="1114" width="334" height="88" rx="10" fill="#222B26"/>

    <rect x="790" y="152" width="8" height="1140" rx="4" fill="#8E9A92" fill-opacity="0.6"/>
    <rect x="282" y="152" width="8" height="1140" rx="4" fill="#8E9A92" fill-opacity="0.45"/>

    <circle cx="742" cy="1208" r="8" fill="#2ECC71"/>
    <circle cx="718" cy="1208" r="8" fill="#A9B8AF"/>
    <circle cx="694" cy="1208" r="8" fill="#A9B8AF"/>

    <path d="M370 323C370 297.49 390.49 277 416 277H665C690.51 277 711 297.49 711 323V336H370V323Z" fill="#2ECC71" fill-opacity="0.28"/>
    <path d="M430 940C438 905 468 876 504 876H575C613 876 645 907 651 944L664 1010H417L430 940Z" fill="#2ECC71" fill-opacity="0.14"/>
  </g>

  <rect x="251" y="101" width="578" height="1208" rx="44" stroke="#0E1210" stroke-opacity="0.42" stroke-width="2"/>
</svg>
